<svg id="visual" viewBox="0 0 900 600" width="900" height="600" xmlns="http://www.w3.org/2000/svg" xmlns:xlink="http://www.w3.org/1999/xlink" version="1.1"><path d="M0 151L21.5 151C43 151 86 151 128.8 145C171.7 139 214.3 127 257.2 135C300 143 343 171 385.8 187C428.7 203 471.3 207 514.2 204C557 201 600 191 642.8 199C685.7 207 728.3 233 771.2 234C814 235 857 211 878.5 199L900 187L900 0L878.5 0C857 0 814 0 771.2 0C728.3 0 685.7 0 642.8 0C600 0 557 0 514.2 0C471.3 0 428.7 0 385.8 0C343 0 300 0 257.2 0C214.3 0 171.7 0 128.8 0C86 0 43 0 21.5 0L0 0Z" fill="#88c4ff"></path><path d="M0 223L21.5 229C43 235 86 247 128.8 248C171.7 249 214.3 239 257.2 244C300 249 343 269 385.8 281C428.7 293 471.3 297 514.2 294C557 291 600 281 642.8 287C685.7 293 728.3 315 771.2 313C814 311 857 285 878.5 272L900 259L900 185L878.5 197C857 209 814 233 771.2 232C728.3 231 685.7 205 642.8 197C600 189 557 199 514.2 202C471.3 205 428.7 201 385.8 185C343 169 300 141 257.2 133C214.3 125 171.7 137 128.8 143C86 149 43 149 21.5 149L0 149Z" fill="#60b2fe"></path><path d="M0 373L21.5 374C43 375 86 377 128.8 378C171.7 379 214.3 379 257.2 390C300 401 343 423 385.8 434C428.7 445 471.3 445 514.2 432C557 419 600 393 642.8 390C685.7 387 728.3 407 771.2 416C814 425 857 423 878.5 422L900 421L900 257L878.5 270C857 283 814 309 771.2 311C728.3 313 685.7 291 642.8 285C600 279 557 289 514.2 292C471.3 295 428.7 291 385.8 279C343 267 300 247 257.2 242C214.3 237 171.7 247 128.8 246C86 245 43 233 21.5 227L0 221Z" fill="#419ae9"></path><path d="M0 601L21.5 601C43 601 86 601 128.8 601C171.7 601 214.3 601 257.2 601C300 601 343 601 385.8 601C428.7 601 471.3 601 514.2 601C557 601 600 601 642.8 601C685.7 601 728.3 601 771.2 601C814 601 857 601 878.5 601L900 601L900 419L878.5 420C857 421 814 423 771.2 414C728.3 405 685.7 385 642.8 388C600 391 557 417 514.2 430C471.3 443 428.7 443 385.8 432C343 421 300 399 257.2 388C214.3 377 171.7 377 128.8 376C86 375 43 373 21.5 372L0 371Z" fill="#327cc1"></path></svg>